# xmcd
#
# Track frame offsets:
#	150
#	21703
#	41721
#	61559
#	77623
#	98134
#	125992
#	134227
#	153641
#	183755
#	204595
#	225986
#
# Disc length: 3081 seconds
#
# Revision: 1
# Processed by: cddbd v1.5.2PL0 Copyright (c) Steve Scherf et al.
# Submitted via: audiograbber 1.83.01
#
DISCID=a50c070c
DTITLE=Wentus Blues Band - Family Meeting [CD 2)
DYEAR=2007
DGENRE=Blues
TTITLE0=I Heard The Angels Singing [featuring Eric Bibb]
TTITLE1=Down The Line [live]
TTITLE2=Looking For Trouble [live featuring Kim Wilson] [bonus track]
TTITLE3=Hold That Note [live featuring Clas Yngstrøm]
TTITLE4=Annie-Lee [live featuring Barrence Whitfield]
TTITLE5=Blind Willie McTell [live featuring Mick Taylor]
TTITLE6=Backroom Delta [live backstage by Louisiana Red and Niko Riipa]
TTITLE7=Ride On Red [live featuring Louisiana Red]
TTITLE8=Ventilator Blues [live featuring Mick Taylor] [bonus track]
TTITLE9=Raining In My Heart [featuring Lazy Lester]
TTITLE10=Biscuit Roller [live featuring Barrence Whitfield and Clas Yngstrøm]
TTITLE11=Outro: Great Final
EXTD=
EXTT0=
EXTT1=
EXTT2=
EXTT3=
EXTT4=
EXTT5=
EXTT6=
EXTT7=
EXTT8=
EXTT9=
EXTT10=
EXTT11=
PLAYORDER=
